<svg width="25" height="24" viewBox="0 0 25 24" fill="none" xmlns="http://www.w3.org/2000/svg">
<g clip-path="url(#clip0_539_7360)">
<path d="M8.23254 15.5158H8.23364C8.23455 15.5158 8.23547 15.5156 8.23638 15.5156H20.9844C21.2982 15.5156 21.5741 15.3074 21.6604 15.0057L24.4729 5.16192C24.5335 4.94971 24.491 4.72156 24.3583 4.54541C24.2253 4.36926 24.0175 4.26562 23.7969 4.26562H6.61096L6.10833 2.00372C6.03674 1.68201 5.75146 1.45312 5.42187 1.45312H1.20312C0.814758 1.45312 0.5 1.76788 0.5 2.15625C0.5 2.54462 0.814758 2.85937 1.20312 2.85937H4.85791C4.9469 3.26019 7.26318 13.6836 7.39648 14.2833C6.64923 14.6081 6.125 15.3532 6.125 16.2187C6.125 17.3818 7.07129 18.3281 8.23437 18.3281H20.9844C21.3727 18.3281 21.6875 18.0134 21.6875 17.625C21.6875 17.2366 21.3727 16.9219 20.9844 16.9219H8.23437C7.84674 16.9219 7.53125 16.6064 7.53125 16.2187C7.53125 15.8317 7.84564 15.5167 8.23254 15.5158ZM22.8647 5.67187L20.4539 14.1094H8.79834L6.92334 5.67187H22.8647Z" fill="#575E71"/>
<path d="M7.53125 20.4375C7.53125 21.6006 8.47754 22.5469 9.64062 22.5469C10.8037 22.5469 11.75 21.6006 11.75 20.4375C11.75 19.2744 10.8037 18.3281 9.64062 18.3281C8.47754 18.3281 7.53125 19.2744 7.53125 20.4375ZM9.64062 19.7344C10.0283 19.7344 10.3437 20.0499 10.3437 20.4375C10.3437 20.8251 10.0283 21.1406 9.64062 21.1406C9.25299 21.1406 8.9375 20.8251 8.9375 20.4375C8.9375 20.0499 9.25299 19.7344 9.64062 19.7344Z" fill="#575E71"/>
<path d="M17.4688 20.4375C17.4688 21.6006 18.415 22.5469 19.5781 22.5469C20.7412 22.5469 21.6875 21.6006 21.6875 20.4375C21.6875 19.2744 20.7412 18.3281 19.5781 18.3281C18.415 18.3281 17.4688 19.2744 17.4688 20.4375ZM19.5781 19.7344C19.9658 19.7344 20.2812 20.0499 20.2812 20.4375C20.2812 20.8251 19.9658 21.1406 19.5781 21.1406C19.1905 21.1406 18.875 20.8251 18.875 20.4375C18.875 20.0499 19.1905 19.7344 19.5781 19.7344Z" fill="#575E71"/>
</g>
<defs>
<clipPath id="clip0_539_7360">
<rect width="24" height="24" fill="white" transform="translate(0.5)"/>
</clipPath>
</defs>
</svg>
