<svg width="24" height="24" viewBox="0 0 24 24" fill="none" xmlns="http://www.w3.org/2000/svg">
<g clip-path="url(#clip0_539_7357)">
<mask id="mask0_539_7357" style="mask-type:luminance" maskUnits="userSpaceOnUse" x="0" y="0" width="25" height="25">
<path d="M0.00488281 0.00488472H24.0049V24.0049H0.00488281V0.00488472Z" fill="white"/>
</mask>
<g mask="url(#mask0_539_7357)">
<path d="M23.3027 12.0059C23.3027 18.245 18.2449 23.3027 12.0059 23.3027C5.76666 23.3027 0.708984 18.245 0.708984 12.0059C0.708984 5.76666 5.76666 0.708986 12.0059 0.708986C18.2449 0.708986 23.3027 5.76666 23.3027 12.0059Z" stroke="#575E71" stroke-width="1.40625" stroke-miterlimit="10" stroke-linecap="round" stroke-linejoin="round"/>
<path d="M16.5239 10.4988C16.5239 12.9945 14.5008 15.0176 12.0051 15.0176C9.50931 15.0176 7.48633 12.9945 7.48633 10.4988C7.48633 8.00325 9.50931 5.98013 12.0051 5.98013C14.5008 5.98013 16.5239 8.00325 16.5239 10.4988Z" stroke="#575E71" stroke-width="1.40625" stroke-miterlimit="10" stroke-linecap="round" stroke-linejoin="round"/>
<path d="M5.26416 21.0712C5.62557 17.668 8.50519 15.0169 12.0042 15.0169C15.5033 15.0169 18.3828 17.6682 18.7441 21.0713" stroke="#575E71" stroke-width="1.40625" stroke-miterlimit="10" stroke-linecap="round" stroke-linejoin="round"/>
</g>
</g>
<defs>
<clipPath id="clip0_539_7357">
<rect width="24" height="24" fill="white"/>
</clipPath>
</defs>
</svg>
