<svg width="131" height="31" viewBox="0 0 131 31" fill="none" xmlns="http://www.w3.org/2000/svg">
<path d="M4.94491 8.45428C4.87726 8.19642 5.07188 7.94429 5.33859 7.94429C5.52217 7.94429 5.68302 8.06713 5.73128 8.24416L8.329 17.7753C8.42545 18.1292 8.92895 18.1255 9.02021 17.7702L12.3558 4.78608C12.4114 4.56959 12.7199 4.57197 12.7721 4.78929L15.8983 17.7874C15.985 18.1478 16.4956 18.1543 16.5913 17.7962L19.1458 8.24593C19.1934 8.06803 19.3547 7.94429 19.5389 7.94429C19.8051 7.94429 19.9996 8.19564 19.9327 8.45321L16.4755 21.7572C16.4103 22.0083 16.0528 22.0063 15.9904 21.7544L12.7387 8.63439C12.6942 8.45479 12.4394 8.45294 12.3923 8.63188L8.92785 21.7905C8.86235 22.0393 8.50903 22.0391 8.44376 21.7903L4.94491 8.45428Z" fill="#2650BE"/>
<path d="M2.78521 14.0159C2.78521 13.8186 2.94528 13.6586 3.14272 13.6586H21.9717C22.1691 13.6586 22.3292 13.8186 22.3292 14.0159C22.3292 14.2133 22.1691 14.3733 21.9717 14.3733H3.14272C2.94528 14.3733 2.78521 14.2133 2.78521 14.0159Z" fill="#2650BE"/>
<path d="M0.640137 15.9218C0.640137 15.7244 0.8002 15.5644 0.997649 15.5644H24.1167C24.3142 15.5644 24.4743 15.7244 24.4743 15.9218C24.4743 16.1191 24.3142 16.2791 24.1167 16.2791H0.997648C0.8002 16.2791 0.640137 16.1191 0.640137 15.9218Z" fill="#2650BE"/>
<path d="M31.1103 8.5109H32.0672L35.7353 19.7893L40.5398 7.79355L45.0453 19.7893L49.2119 8.5109H50.1688L45.0453 22.3001L40.5398 10.2246L35.5958 22.3001L31.1103 8.5109Z" fill="#2650BE"/>
<path d="M59.1758 17.8365H52.2183C52.2183 18.8461 52.5306 19.6698 53.1552 20.3074C53.7932 20.9451 54.5574 21.2639 55.4478 21.2639C56.0858 21.2639 56.6506 21.0978 57.1424 20.7657C57.6341 20.4203 58.0129 19.9687 58.2787 19.4107L58.9565 19.8092C58.6508 20.3938 58.2056 20.9118 57.6208 21.3635C57.036 21.8019 56.2918 22.0211 55.388 22.0211C54.152 22.0211 53.1752 21.6226 52.4575 20.8255C51.7398 20.0152 51.381 18.9989 51.381 17.7767C51.381 16.435 51.7664 15.3856 52.5372 14.6283C53.3214 13.8711 54.2517 13.4925 55.3282 13.4925C56.4313 13.4925 57.3484 13.8977 58.0793 14.7081C58.8103 15.5184 59.1758 16.5612 59.1758 17.8365ZM52.2781 17.0793H58.3385C58.2322 16.2557 57.8999 15.5782 57.3417 15.0468C56.7968 14.5154 56.1256 14.2497 55.3282 14.2497C54.5175 14.2497 53.833 14.5221 53.2748 15.0667C52.7166 15.5981 52.3844 16.269 52.2781 17.0793Z" fill="#2650BE"/>
<path d="M71.7432 21.8019L69.969 17.438H64.3072L62.5329 21.8019H61.576L67.178 8.11237L72.7001 21.8019H71.7432ZM64.6262 16.6409H69.65L67.158 10.3441L64.6262 16.6409Z" fill="#2650BE"/>
<path d="M75.6095 21.8019V13.6719H76.4069V14.728C76.7658 13.9044 77.3639 13.4925 78.2011 13.4925C78.5201 13.4925 78.8059 13.559 79.0584 13.6918L78.6597 14.4092C78.5135 14.3029 78.3141 14.2497 78.0616 14.2497C77.6762 14.2497 77.3572 14.3627 77.1047 14.5885C76.8655 14.801 76.6993 15.1066 76.6063 15.5051C76.5266 15.8904 76.4734 16.2158 76.4468 16.4815C76.4202 16.7472 76.4069 17.066 76.4069 17.438V21.8019H75.6095Z" fill="#2650BE"/>
<path d="M89.2608 17.8365H82.3032C82.3032 18.8461 82.6156 19.6698 83.2402 20.3074C83.8782 20.9451 84.6423 21.2639 85.5328 21.2639C86.1708 21.2639 86.7356 21.0978 87.2273 20.7657C87.7191 20.4203 88.0979 19.9687 88.3637 19.4107L89.0415 19.8092C88.7358 20.3938 88.2906 20.9118 87.7058 21.3635C87.121 21.8019 86.3768 22.0211 85.473 22.0211C84.237 22.0211 83.2601 21.6226 82.5425 20.8255C81.8248 20.0152 81.4659 18.9989 81.4659 17.7767C81.4659 16.435 81.8514 15.3856 82.6222 14.6283C83.4063 13.8711 84.3367 13.4925 85.4132 13.4925C86.5163 13.4925 87.4333 13.8977 88.1643 14.7081C88.8953 15.5184 89.2608 16.5612 89.2608 17.8365ZM82.363 17.0793H88.4235C88.3172 16.2557 87.9849 15.5782 87.4267 15.0468C86.8818 14.5154 86.2106 14.2497 85.4132 14.2497C84.6025 14.2497 83.918 14.5221 83.3598 15.0667C82.8016 15.5981 82.4694 16.269 82.363 17.0793Z" fill="#2650BE"/>
<path d="M91.038 8.5109H91.9949L95.6631 19.7893L100.468 7.79355L104.973 19.7893L109.14 8.5109H110.097L104.973 22.3001L100.468 10.2246L95.5236 22.3001L91.038 8.5109Z" fill="#2650BE"/>
<path d="M118.446 15.0867V13.6719H119.243V21.8019H118.446V20.3473C117.715 21.4631 116.658 22.0211 115.276 22.0211C114.173 22.0211 113.236 21.6292 112.465 20.8454C111.694 20.0616 111.309 19.0255 111.309 17.7369C111.309 16.4749 111.674 15.452 112.405 14.6682C113.136 13.8844 114.093 13.4925 115.276 13.4925C116.632 13.4925 117.688 14.0239 118.446 15.0867ZM115.316 14.2497C114.452 14.2497 113.708 14.5619 113.083 15.1863C112.458 15.7974 112.146 16.6276 112.146 17.6771C112.146 18.6469 112.432 19.4904 113.003 20.2078C113.575 20.9118 114.352 21.2639 115.336 21.2639C116.306 21.2639 117.07 20.9185 117.628 20.2277C118.2 19.5236 118.486 18.6734 118.486 17.6771C118.486 16.5745 118.16 15.731 117.509 15.1464C116.857 14.5486 116.127 14.2497 115.316 14.2497Z" fill="#2650BE"/>
<path d="M123.98 26.385L125.894 21.9414L122.027 13.6719H122.944L126.353 20.9052L129.323 13.6719H130.24L124.897 26.385H123.98Z" fill="#2650BE"/>
</svg>
